# xmcd
#
# Track frame offsets:
#	182
#	10092
#	21045
#	31657
#	50845
#	59640
#	73855
#	87140
#	100265
#	112220
#	127137
#	137832
#	148202
#	162817
#	174740
#	186150
#	198020
#	212425
#	225160
#	234662
#	248770
#	259082
#	268682
#	284125
#	298295
#
# Disc length: 4140
#
# Revision: 1
# Processed by: cddbd v1.5.1PL0 Copyright (c) Steve Scherf et al.
# Submitted via: ExactAudioCopy v0.95a5
# Normalized: r0:TDELIM( - )
#
DISCID=7f102a19
DTITLE=Various Artist - Country Superstars - 100 Greatest Hits [CD2]
DYEAR=1994
DGENRE=Country
TTITLE0=Jan Howard - The One You Slip Around With
TTITLE1=Charley Rich - Unchained Melody
TTITLE2=Roy Clark - Are You From Dixie (Cause I'm From Dixie Too)
TTITLE3=Alabama - I Wanna Be With You Tonight
TTITLE4=Roger Miller - England Swings
TTITLE5=Johnny Lee - You Could've Heard A Heart Break
TTITLE6=Kendalls - Pittsburgh Stealers
TTITLE7=Charley Pride - Kaw-Liga
TTITLE8=Dolly Parton - Making Believe
TTITLE9=Donna Fargo - You Were Always There
TTITLE10=Hank Locklin - Please Help Me, I'm Falling
TTITLE11=Porter Wagoner - Green, Green Grass Of Home
TTITLE12=Loretta Lynn - Coal Miner's Daughter
TTITLE13=Jack Greene - Ther Goes My Everything
TTITLE14=Patsy Cline - Crazy Dreams
TTITLE15=Ernest Ashworth - Talk Back Trembling Lips
TTITLE16=Johnny Lee - Bet Your Heart On Me
TTITLE17=Freddy Fender - Since I Met You, Baby
TTITLE18=Charley Pride - Kiss An Angel Good Mornin'
TTITLE19=Lynn Anderson - Cry
TTITLE20=Patsy Cline - Pick Me Up On Your Way Down
TTITLE21=Loretta Lynn - You Ain't Woman Enough
TTITLE22=Kenny Rogers - For The Good Times
TTITLE23=Conway Twitty - You've Never Been This Far Before
TTITLE24=Porter Wagoner - The Carroll County Accident
EXTD=
EXTT0=
EXTT1=
EXTT2=
EXTT3=
EXTT4=
EXTT5=
EXTT6=
EXTT7=
EXTT8=
EXTT9=
EXTT10=
EXTT11=
EXTT12=
EXTT13=
EXTT14=
EXTT15=
EXTT16=
EXTT17=
EXTT18=
EXTT19=
EXTT20=
EXTT21=
EXTT22=
EXTT23=
EXTT24=
PLAYORDER=
